<svg id="Layer_1" data-name="Layer 1" xmlns="http://www.w3.org/2000/svg" viewBox="0 0 300 30"><defs><style>.cls-1{fill:#fff;}.cls-2{fill:#ccc;}</style></defs><title>logo</title><path class="cls-1" d="M28.84.51v15A14.47,14.47,0,0,1,14.43,30h0A14.47,14.47,0,0,1,0,15.51H0V.51H5v15A9.47,9.47,0,0,0,14.43,25h0a9.47,9.47,0,0,0,9.44-9.48V.51Zm9.66,29v-15A9.47,9.47,0,0,1,47.94,5h0a9.47,9.47,0,0,1,9.44,9.48v15h5v-15h0A14.47,14.47,0,0,0,47.94,0h0A14.47,14.47,0,0,0,33.52,14.49v15ZM91.37.51A14.47,14.47,0,0,0,77,15h0A14.47,14.47,0,0,0,91.37,29.49h9.71v-5H91.37A9.47,9.47,0,0,1,81.94,15h0a9.47,9.47,0,0,1,9.44-9.48h9.7v-5Zm-19,29V.51h-5v29Zm38.71,0V.51h-5v29Zm57.14-29v2.7a9.46,9.46,0,0,1-9.43,9.48h0a9.47,9.47,0,0,1-9.43-9.48V.51h-5v2.7a14.5,14.5,0,0,0,11.93,14.26v12h5v-12A14.5,14.5,0,0,0,173.24,3.21V.51Zm-52.46,0v5h9.72v24h5v-24h9.72v-5Zm53.52,29V27h.92v-.33H168V27h.92v2.45Zm1.64,0V27.12l.8,2.37h.33l.81-2.33v2.33h.35V26.71h-.5l-.66,1.94c-.07.2-.12.35-.14.45l-.14-.41-.66-2h-.55v2.78Z"/><path class="cls-2" d="M216.35,15A14.3,14.3,0,0,1,212,25.48a14.2,14.2,0,0,1-20.48.05A14.58,14.58,0,0,1,187.3,15a14.4,14.4,0,0,1,4.26-10.48,14.14,14.14,0,0,1,20.48,0A14.31,14.31,0,0,1,216.35,15Zm-1.8,0a12.75,12.75,0,0,0-3.77-9.27,12.31,12.31,0,0,0-18,0A13,13,0,0,0,189.1,15a13.28,13.28,0,0,0,3.71,9.32,12.31,12.31,0,0,0,18,0A13.06,13.06,0,0,0,214.54,15Z"/><path class="cls-2" d="M222,2.23V12.81h9.28v1.7H222v15h-1.75V.53h11.25v1.7Z"/><path class="cls-2" d="M238,2.23V12.81h9.28v1.7H238v15h-1.75V.53h11.25v1.7Z"/><path class="cls-2" d="M252.33,29.49V.53h1.75v29Z"/><path class="cls-2" d="M272.59,29.87a14,14,0,0,1-10.27-4.39A14.24,14.24,0,0,1,258,15.06a14.37,14.37,0,0,1,4.31-10.53A14.08,14.08,0,0,1,272.64.14a13.06,13.06,0,0,1,9.28,3.78V6.45a12.07,12.07,0,0,0-9.39-4.61,11.89,11.89,0,0,0-9,4,13.25,13.25,0,0,0-3.77,9.38,12.22,12.22,0,0,0,3.71,8.94,12.69,12.69,0,0,0,9,4.06,11.69,11.69,0,0,0,5-1.23A13.79,13.79,0,0,0,282,23.67V26.2A14.19,14.19,0,0,1,272.59,29.87Z"/><path class="cls-2" d="M286.62,29.49V.53H300v1.7H288.37V12.81h11.3v1.7h-11.3V27.84H300v1.65Z"/></svg>